name C:\Users\tom_v\My Drive\PostDoc\MusculoskeletalSpecialization\ResultsSprinting\Case_2\motion.mot
datacolumns 32
datarows 11
range 0.00000000 0.03830698
endheader 
time	pelvis_tilt	pelvis_list	pelvis_rotation	pelvis_tx	pelvis_ty	pelvis_tz	hip_flexion_r	hip_adduction_r	hip_rotation_r	knee_angle_r	ankle_angle_r	subtalar_angle_r	mtp_angle_r	hip_flexion_l	hip_adduction_l	hip_rotation_l	knee_angle_l	ankle_angle_l	subtalar_angle_l	mtp_angle_l	lumbar_extension	lumbar_bending	lumbar_rotation	arm_flex_r	arm_add_r	arm_rot_r	elbow_flex_r	arm_flex_l	arm_add_l	arm_rot_l	elbow_flex_l	
          0.00000000	         -6.52524362	         -3.70816771	          6.14708510	          0.00000000	          0.95457969	         -0.00497114	         25.88734650	          4.05533557	         -9.08417221	         -5.95650603	          0.28004939	         -3.59597677	          6.41960549	         16.12110620	         -8.88004035	         -5.98085414	        -56.60908243	        -10.06281767	         -2.60723096	         -0.07703511	        -12.51998712	          6.49452999	        -15.66101652	          9.13175342	        -20.81989796	         -1.78901662	          1.03828026	          2.92305736	        -20.99914512	         -6.77980462	         27.63261619	
          0.00383070	         -6.96662287	         -3.16572667	          4.22665736	          0.03799772	          0.95224912	         -0.00407626	         24.38682437	          3.93614372	         -8.57697882	         -5.20802287	         -2.41072713	         -3.13601248	          6.61368699	         17.91237973	         -8.11392479	         -6.50097696	        -57.61068899	         -8.31701461	         -1.23225902	         -0.39151997	        -11.91201814	          6.04497664	        -14.58187517	         13.63287804	        -20.33913644	         -7.94551586	          3.98839457	          3.52340877	        -17.71223762	         -6.38694710	         16.11160599	
          0.00766140	         -7.43494422	         -2.52241810	          2.30142765	          0.07605823	          0.94931662	         -0.00320389	         22.91113781	          3.61046582	         -8.09895471	         -4.53694593	         -5.22725098	         -2.65653486	          6.82645545	         19.83906174	         -7.34682701	         -7.04340662	        -58.65669357	         -7.35324755	         -0.41494419	         -4.00059862	        -11.26260489	          5.52651149	        -13.52480932	         17.13138449	        -19.73667982	        -12.08774026	          9.20425049	          3.09449759	        -14.45120667	         -7.82768398	          6.98112884	
          0.01149209	         -7.93684788	         -1.81078364	          0.36730258	          0.11421903	          0.94579651	         -0.00229058	         21.50175563	          3.13577938	         -7.80222837	         -4.08330941	         -8.78850510	         -1.89704054	          7.21119255	         21.89836005	         -6.64646361	         -7.61144712	        -59.74353528	         -7.32779810	          0.36876358	         -1.35851660	        -10.55816504	          4.98981575	        -12.46734119	         19.52718348	        -19.13352289	        -13.19970639	         16.85363777	          1.21128728	        -11.41081698	        -10.12689157	          1.41433083	
          0.01532279	         -8.50418637	         -1.32503133	         -1.73928398	          0.15228907	          0.94193452	         -0.00086724	         20.51809665	          3.09148094	         -6.55955820	         -5.53921097	         -5.78334290	         -0.24025889	          8.16376629	         24.09864139	         -6.47360721	         -8.31484626	        -60.94604382	         -5.79736233	          2.04345137	          0.98720546	         -9.82297772	          4.74133583	        -11.17236196	         20.93667579	        -18.99077836	        -10.89380318	         26.79450599	         -2.29172204	         -8.47672702	        -11.96300396	          0.00026579	
          0.01915349	         -8.99269300	         -1.31764470	         -3.99284917	          0.19018923	          0.93846730	          0.00106922	         19.43289210	          3.77676358	         -3.30519804	         -7.23617174	         -1.09689685	         -0.69238492	          9.66654273	         26.27683815	         -7.09986596	         -9.02741407	        -62.23694952	         -4.48696212	          3.44598953	          2.91319124	         -9.30374467	          5.05520328	         -9.61467344	         21.88825299	        -19.81962166	         -5.78819358	         38.32706157	         -7.43595391	         -5.50067319	        -12.86801874	          3.09619062	
          0.02298419	         -9.30391209	         -1.63477103	         -6.27678813	          0.22790009	          0.93575953	          0.00330788	         17.95350526	          4.87923412	          0.53083266	         -8.43444949	          1.37385705	         -2.88548243	         11.36537957	         28.27604247	         -8.22311021	         -9.59641312	        -63.51041560	         -3.84194025	          4.38192255	          4.17485867	         -9.14422915	          5.70951578	         -7.93786961	         23.15248695	        -21.55927555	          0.56115301	         50.31506908	        -14.05442920	         -2.52207590	        -13.18378189	         10.47213337	
          0.02681488	         -9.39798470	         -1.94731734	         -8.45744526	          0.26542796	          0.93378659	          0.00554936	         16.09232877	          5.78945004	          4.03495895	         -9.40587608	          3.26813940	         -4.78600483	         13.23058122	         30.03110114	         -9.31089528	         -9.93587907	        -64.65335661	         -3.10961069	          5.30737132	          4.84107518	         -9.32572368	          6.27919433	         -6.29202097	         25.20888827	        -23.60800545	          6.76764499	         61.82740698	        -21.60753284	          0.16852509	        -11.91863636	         20.53994116	
          0.03064558	         -9.34523065	         -2.07142016	        -10.41683139	          0.30277773	          0.93230005	          0.00756992	         14.01278310	          6.18540323	          6.73612318	        -10.23418794	          5.01255552	         -5.65558387	         15.18006865	         31.67107321	        -10.04332803	         -9.97940143	        -65.63207704	         -2.12243432	          6.36347949	          5.32252156	         -9.66510021	          6.54551085	         -4.78826673	         28.06845206	        -25.28665440	         12.07741273	         72.33556019	        -29.39094310	          2.23464811	         -9.08083104	         31.22271454	
          0.03447628	         -9.28360922	         -1.93078836	        -12.09363100	          0.33998747	          0.93097368	          0.00927277	         11.95046446	          5.99823856	          8.51927378	        -10.96301677	          6.63478964	         -5.53485367	         17.17249797	         33.39915231	        -10.31220317	         -9.72941501	        -66.44672900	         -1.12946439	          7.42082869	          5.73130815	         -9.91637586	          6.45843496	         -3.49013556	         31.41009043	        -26.07240682	         16.07577570	         81.59818305	        -36.86975205	          3.61797033	         -5.49232546	         40.99311898	
          0.03830698	         -9.27679129	         -1.51872795	        -13.51196639	          0.37713414	          0.92966495	          0.01073115	         10.02757144	          5.30115673	          9.49891786	        -11.60929566	          7.92222764	         -4.80658397	         19.36061176	         35.27064257	        -10.17102189	         -9.30156173	        -67.08378055	         -0.14970638	          8.42185174	          6.01433258	         -9.96273024	          6.04003816	         -2.37668396	         34.80322706	        -25.67749601	         18.52171606	         89.54937475	        -43.76642174	          4.43877350	         -1.71969166	         49.06604212	
